<?xml version="1.0" encoding="utf-8"?>
<!-- Generator: Adobe Illustrator 24.1.1, SVG Export Plug-In . SVG Version: 6.00 Build 0)  -->
<svg version="1.1" id="Livello_1" xmlns="http://www.w3.org/2000/svg" xmlns:xlink="http://www.w3.org/1999/xlink" x="0px" y="0px"
	 viewBox="0 0 400 400" style="enable-background:new 0 0 400 400;" xml:space="preserve">
<style type="text/css">
	.st0{fill:#263238;}
	.st1{fill:none;stroke:#263238;stroke-linecap:round;stroke-linejoin:round;}
	.st2{fill:#263238;stroke:#263238;stroke-linecap:round;stroke-linejoin:round;}
	.st3{fill:#ADADAD;stroke:#263238;stroke-linecap:round;stroke-linejoin:round;}
	.st4{fill:none;stroke:#263238;stroke-width:2;stroke-linecap:round;stroke-linejoin:round;}
	.st5{fill:none;stroke:#263238;stroke-width:0.5;stroke-linecap:round;stroke-linejoin:round;}
	.st6{fill:#FFFFFF;stroke:#263238;stroke-linecap:round;stroke-linejoin:round;}
	.st7{fill:#34A853;stroke:#263238;stroke-linecap:round;stroke-linejoin:round;}
</style>
<g id="freepik--Plants--inject-2">
	<path class="st0" d="M49.63,347.45c2.25-0.13,6.7-2.61,6.7-2.62s-2.46-2.56-2.63-2.7c-2.03-1.63-6.88-3.55-9.25-1.87
		c-1.52,1.15-1.85,3.37-0.74,4.96c0.07,0.1,0.15,0.2,0.23,0.29C45.25,347.14,47.72,347.56,49.63,347.45z"/>
	<path class="st0" d="M95.63,324.47c0.05,0-0.69-3.56-0.76-3.74c-0.83-2.54-3.86-6.92-6.73-6.87c-1.87,0.09-3.32,1.75-3.24,3.71
		c0.01,0.13,0.02,0.26,0.04,0.38c0.23,2.1,2.08,3.86,3.73,4.88C90.61,323.97,95.63,324.47,95.63,324.47z"/>
	<path class="st0" d="M52.01,334.24v-0.06c0.27,0.81,0.56,1.67,0.9,2.61c0.64,1.72,1.37,3.66,2.31,5.72
		c0.99,2.22,2.1,4.39,3.33,6.48c1.37,2.35,2.93,4.57,4.67,6.63l0.06,0.07c-0.73-0.45-2.79-1.63-2.95-1.7
		c-2.38-1.02-7.53-1.53-9.39,0.77c-1.17,1.52-0.94,3.75,0.52,4.97c0.1,0.08,0.2,0.16,0.31,0.23c1.68,1.2,4.16,0.94,5.97,0.28
		c2.05-0.72,5.48-4.05,5.75-4.31c1.83,2.05,3.78,3.97,5.84,5.75c1.2,1.04,2.44,2.06,3.69,3.05c-0.64-0.36-1.21-0.68-1.3-0.72
		c-2.37-1.02-7.53-1.53-9.38,0.77c-1.17,1.52-0.94,3.75,0.52,4.97c0.1,0.08,0.2,0.16,0.31,0.23c1.67,1.2,4.15,0.94,5.97,0.28
		c1.82-0.66,4.82-3.42,5.59-4.17l1.45,1.13c2.34,1.81,4.67,3.59,6.91,5.42c0.79,0.65,1.54,1.31,2.3,1.97
		c-0.56-0.33-1.05-0.6-1.13-0.63c-2.37-1.02-7.53-1.53-9.38,0.77c-1.17,1.52-0.94,3.75,0.52,4.97c0.1,0.08,0.2,0.16,0.31,0.23
		c1.68,1.2,4.15,0.94,5.97,0.28c1.82-0.66,4.53-3.16,5.46-4.04c0.75,0.7,1.51,1.4,2.21,2.12c0.47,0.5,0.96,0.94,1.4,1.48l1.34,1.53
		c0.82,1,1.67,2.03,2.44,3.03c0.55,0.69,1.05,1.37,1.56,2.04c-0.78-0.66-2.33-1.87-2.47-1.98c-2.21-1.38-7.22-2.69-9.39-0.72
		c-1.38,1.33-1.47,3.57-0.2,5.01c0.08,0.09,0.17,0.18,0.26,0.27c1.48,1.45,3.98,1.56,5.86,1.22c2.08-0.37,5.81-3,6.27-3.33
		c0.84,1.11,1.65,2.21,2.39,3.26c1.87,2.6,3.43,4.94,4.69,6.87h2.3c-1.41-2.11-3.31-4.84-5.64-7.94c-0.9-1.14-1.79-2.34-2.74-3.56
		c0.96-1.13,1.86-2.33,2.69-3.57c2.03,0.8,6.23,0.75,6.78,0.74c0.11,1.42,0.21,2.81,0.28,4.1c0.22,4.15,0.29,7.64,0.29,10.24h1.15
		l0.76-0.4c-0.06-2.57-0.2-5.98-0.5-9.96c-0.11-1.43-0.25-2.97-0.41-4.55c0.54-0.15,4.89-1.39,6.52-2.81
		c1.48-1.27,3.02-3.32,2.93-5.44c-0.02-1.96-1.57-3.54-3.45-3.51c-0.12,0-0.23,0.01-0.34,0.02c-2.84,0.43-5.15,5.27-5.58,7.91
		c0,0.16-0.12,1.87-0.16,2.97c-0.07-0.65-0.13-1.27-0.21-1.93c-0.14-1.31-0.33-2.61-0.52-4.01c-0.12-0.67-0.23-1.35-0.35-2.04
		c-0.12-0.69-0.3-1.38-0.45-2.1c-0.37-1.62-0.82-3.25-1.31-4.88c1.09-0.13,4.98-0.67,6.64-1.7s3.46-2.81,3.68-4.91
		c0.27-1.94-1.02-3.74-2.88-4.02c-0.12-0.02-0.25-0.03-0.37-0.03c-2.87,0-5.86,4.39-6.67,6.93c-0.04,0.16-0.43,2.05-0.62,3.09
		c-0.3-0.94-0.6-1.95-0.9-2.93c-0.97-2.81-2.03-5.61-3.08-8.42c-0.32-0.86-0.64-1.73-0.95-2.59c0.39-0.05,5.03-0.59,6.88-1.74
		c1.64-1.03,3.47-2.81,3.68-4.91c0.27-1.94-1.02-3.74-2.88-4.02c-0.12-0.02-0.24-0.03-0.36-0.03c-2.88,0-5.86,4.39-6.67,6.93
		c-0.06,0.19-0.61,2.91-0.72,3.61c-0.69-1.87-1.36-3.81-1.95-5.71c-0.81-2.57-1.46-5.19-1.95-7.85c0.19,0,5.03-0.56,6.92-1.74
		c1.64-1.03,3.47-2.81,3.68-4.91c0.27-1.93-1.01-3.73-2.86-4.02c-0.13-0.02-0.25-0.03-0.38-0.04c-2.88,0-5.86,4.39-6.67,6.93
		c-0.05,0.16-0.48,2.24-0.65,3.23h-0.17c-0.41-2.69-0.6-5.41-0.56-8.13c0-1.5,0.09-2.93,0.21-4.32c0.9,0,5.07-0.07,6.89-0.94
		c1.82-0.86,3.74-2.4,4.19-4.46c0.47-1.9-0.62-3.83-2.44-4.32c-0.12-0.03-0.24-0.06-0.36-0.08c-2.86-0.36-6.27,3.74-7.36,6.13
		c-0.05,0.13-0.5,1.54-0.82,2.58c0.05-0.63,0.11-1.28,0.18-1.87c0.26-2.25,0.62-4.3,0.96-6.1c0.21-1.03,0.4-1.96,0.6-2.81
		c0.9-0.5,4.48-2.52,5.67-4.14c1.19-1.62,2.27-3.92,1.74-5.97c-0.42-1.9-2.23-3.1-4.06-2.66c-0.12,0.03-0.24,0.07-0.36,0.11
		c-2.69,1.06-3.95,6.3-3.83,8.97c0,0.23,0.58,3.83,0.63,3.8h0.05c-0.21,0.82-0.41,1.71-0.63,2.69c-0.38,1.81-0.79,3.85-1.09,6.1
		c-0.35,2.43-0.57,4.87-0.65,7.33c-0.11,2.75,0.03,5.5,0.39,8.22c0,0.03,0,0.06,0,0.09c-0.37-0.79-1.46-2.97-1.57-3.12
		c-1.44-2.22-5.48-5.61-8.23-4.77c-1.79,0.6-2.76,2.6-2.19,4.47c0.04,0.12,0.08,0.24,0.13,0.36c0.76,1.96,2.98,3.15,4.83,3.67
		c2.09,0.58,6.71-0.22,7.07-0.29c0.44,2.76,1.05,5.49,1.84,8.16c0.45,1.56,0.9,3.12,1.46,4.68c-0.33-0.67-0.65-1.27-0.69-1.35
		c-1.44-2.22-5.48-5.61-8.24-4.76c-1.78,0.61-2.76,2.61-2.18,4.47c0.04,0.12,0.08,0.24,0.13,0.35c0.76,1.97,2.98,3.15,4.83,3.68
		s5.84-0.08,6.88-0.26l0.6,1.74c0.99,2.81,2,5.68,2.9,8.5c0.31,0.99,0.59,1.97,0.9,2.97c-0.3-0.6-0.56-1.09-0.61-1.17
		c-1.44-2.22-5.48-5.61-8.23-4.76c-1.78,0.6-2.76,2.59-2.19,4.45c0.04,0.13,0.08,0.25,0.14,0.37c0.76,1.97,2.98,3.16,4.83,3.68
		c1.86,0.51,5.44,0,6.69-0.23c0.26,1.02,0.52,2.05,0.73,3.05c0.13,0.68,0.3,1.34,0.39,2.03c0.09,0.69,0.21,1.38,0.3,2.05
		c0.15,1.31,0.31,2.66,0.43,3.94c0.09,0.94,0.15,1.74,0.22,2.59c-0.3-0.99-0.94-2.92-1.01-3.07c-1.05-2.09-2.59-3.86-4.48-5.15
		c-0.11-0.24-0.23-0.47-0.39-0.68c-1.05-1.63-3.17-2.05-4.73-0.95c-0.1,0.07-0.19,0.14-0.28,0.22c-2.14,2-1.51,7.36-0.48,9.82
		c0.06,0.14,0.9,1.63,1.43,2.56l-1.19-1.49c-0.82-1.01-1.66-1.99-2.55-3.05l-1.37-1.5c-0.45-0.51-0.98-0.99-1.47-1.49
		c-1.17-1.14-2.4-2.24-3.68-3.31c0.84-0.75,3.8-3.44,4.63-5.25c0.83-1.81,1.41-4.34,0.48-6.22c-0.8-1.77-2.82-2.53-4.51-1.69
		c-0.11,0.06-0.22,0.12-0.33,0.19c-2.41,1.63-2.57,7.04-1.9,9.62c0.04,0.16,0.73,1.96,1.12,2.94c-0.77-0.65-1.53-1.28-2.33-1.87
		c-2.29-1.79-4.68-3.53-7.05-5.28c-0.73-0.53-1.44-1.08-2.16-1.62c0.3-0.26,3.88-3.38,4.81-5.41c0.83-1.81,1.41-4.34,0.48-6.22
		c-0.8-1.77-2.83-2.53-4.52-1.69c-0.11,0.06-0.22,0.12-0.33,0.18c-2.4,1.63-2.56,7.04-1.89,9.62c0,0.2,1.03,2.81,1.31,3.42
		c-1.58-1.19-3.15-2.4-4.64-3.64c-2.03-1.68-3.96-3.49-5.77-5.43c0.14-0.12,3.89-3.36,4.85-5.44c0.83-1.81,1.41-4.34,0.48-6.22
		c-0.8-1.77-2.83-2.53-4.52-1.69c-0.11,0.06-0.22,0.12-0.33,0.18c-2.41,1.63-2.56,7.04-1.9,9.62c0,0.17,0.8,2.14,1.17,3.07
		l-0.14,0.09c-1.77-2-3.36-4.16-4.76-6.46c-0.79-1.25-1.47-2.5-2.12-3.74c0.76-0.53,4.2-2.99,5.25-4.75
		c1.06-1.77,1.86-4.15,1.14-6.13c-0.61-1.85-2.54-2.84-4.32-2.21c-0.12,0.04-0.23,0.09-0.35,0.15c-2.56,1.35-3.29,6.7-2.9,9.36
		c0,0.14,0.39,1.57,0.68,2.62c-0.28-0.56-0.58-1.13-0.84-1.67c-0.98-2.03-1.79-3.95-2.42-5.61c-0.38-0.94-0.7-1.87-0.99-2.69
		c0.48-0.94,2.38-4.68,2.55-6.72s-0.19-4.58-1.7-5.98c-1.35-1.35-3.5-1.3-4.79,0.11c-0.09,0.1-0.17,0.2-0.25,0.3
		c-1.69,2.42,0,7.53,1.55,9.68C49.6,331.62,52.01,334.28,52.01,334.24z"/>
	<path class="st0" d="M124.62,341.14c2.39-0.14,7.17-2.81,7.17-2.81s-2.62-2.73-2.81-2.89c-2.17-1.74-7.33-3.74-9.86-1.97
		c-1.62,1.19-2,3.53-0.86,5.22c0.09,0.14,0.2,0.27,0.31,0.4C119.94,340.82,122.56,341.25,124.62,341.14z"/>
	<path class="st0" d="M173.66,316.63c0.06,0-0.74-3.74-0.82-4.02c-0.9-2.7-4.11-7.38-7.17-7.32c-1.98,0.07-3.53,1.8-3.46,3.87
		c0.01,0.16,0.02,0.32,0.05,0.48c0.26,2.25,2.22,4.13,3.99,5.2C168.31,316.1,173.66,316.63,173.66,316.63z"/>
	<path class="st0" d="M179.19,290.93c-2.86,1.12-4.2,6.72-4.08,9.57c0,0.24,0.62,4.07,0.67,4.05h0.05
		c-0.22,0.88-0.44,1.87-0.66,2.87c-0.4,1.92-0.84,4.1-1.17,6.55c-0.38,2.58-0.61,5.19-0.7,7.8c-0.1,2.93,0.04,5.86,0.42,8.77
		c0.01,0.03,0.01,0.07,0,0.1c-0.39-0.84-1.56-3.16-1.67-3.33c-1.53-2.36-5.84-5.98-8.78-5.08c-1.89,0.61-2.95,2.71-2.36,4.69
		c0.05,0.16,0.1,0.31,0.17,0.46c0.81,2.09,3.18,3.36,5.15,3.91c2.22,0.62,7.17-0.24,7.54-0.31c0.47,2.94,1.13,5.85,1.96,8.7
		c0.48,1.66,1,3.32,1.56,4.98c-0.36-0.72-0.69-1.36-0.74-1.44c-1.54-2.36-5.84-5.98-8.78-5.08c-1.89,0.61-2.95,2.71-2.37,4.68
		c0.05,0.16,0.1,0.31,0.17,0.47c0.82,2.09,3.18,3.36,5.15,3.91s6.22-0.08,7.33-0.27c0.22,0.64,0.43,1.26,0.65,1.87
		c1.06,3.04,2.12,6.06,3.08,9.07c0.34,1.06,0.64,2.11,0.9,3.16c-0.32-0.64-0.59-1.17-0.65-1.24c-1.54-2.37-5.84-5.99-8.78-5.08
		c-1.89,0.61-2.95,2.71-2.36,4.68c0.05,0.15,0.1,0.31,0.17,0.45c0.82,2.1,3.18,3.37,5.16,3.92s5.8,0,7.13-0.24
		c0.28,1.09,0.56,2.18,0.78,3.25c0.13,0.73,0.31,1.42,0.4,2.17c0.09,0.75,0.22,1.46,0.33,2.18c0.16,1.39,0.33,2.81,0.46,4.2
		c0.09,0.94,0.16,1.87,0.24,2.76c-0.33-1.06-1.01-3.11-1.08-3.28c-1.11-2.22-2.76-4.11-4.77-5.48c-0.11-0.26-0.25-0.5-0.41-0.73
		c-1.08-1.74-3.3-2.23-4.96-1.11c-0.15,0.1-0.29,0.21-0.42,0.33c-2.29,2.13-1.61,7.85-0.51,10.46c0.07,0.16,0.96,1.74,1.53,2.74
		c-0.42-0.53-0.83-1.06-1.27-1.59c-0.9-1.08-1.79-2.12-2.69-3.25l-1.46-1.6c-0.48-0.54-1.04-1.06-1.57-1.59
		c-1.25-1.22-2.56-2.39-3.92-3.53c0.9-0.8,4.05-3.67,4.94-5.61c0.89-1.95,1.51-4.63,0.51-6.63c-0.82-1.88-2.95-2.71-4.75-1.85
		c-0.14,0.07-0.28,0.15-0.41,0.23c-2.57,1.75-2.74,7.49-2.03,10.29c0,0.17,0.77,2.09,1.19,3.13c-0.82-0.68-1.63-1.37-2.48-2.03
		c-2.45-1.87-4.98-3.74-7.51-5.61l-2.3-1.72c0.32-0.28,4.14-3.61,5.14-5.77c0.9-1.92,1.5-4.62,0.51-6.63
		c-0.83-1.88-2.95-2.7-4.75-1.84c-0.14,0.07-0.28,0.14-0.41,0.23c-2.57,1.74-2.74,7.49-2.03,10.29c0.05,0.21,1.1,2.97,1.4,3.66
		c-1.69-1.27-3.36-2.55-4.96-3.88c-2.17-1.79-4.22-3.72-6.15-5.78c0.15-0.13,4.15-3.58,5.17-5.8c0.9-1.87,1.5-4.63,0.51-6.63
		c-0.82-1.88-2.95-2.71-4.75-1.85c-0.14,0.07-0.29,0.15-0.42,0.24c-2.56,1.74-2.73,7.49-2.02,10.29c0.04,0.19,0.84,2.28,1.25,3.28
		l-0.15,0.1c-1.88-2.14-3.58-4.44-5.08-6.89c-0.83-1.34-1.57-2.67-2.25-3.98c0.81-0.56,4.48-3.18,5.6-5.07
		c1.12-1.89,1.98-4.43,1.21-6.55c-0.65-1.98-2.72-3.03-4.62-2.35c-0.12,0.04-0.24,0.09-0.35,0.15c-2.69,1.44-3.51,7.15-3.09,9.97
		c0,0.15,0.42,1.68,0.73,2.81c-0.3-0.6-0.62-1.21-0.9-1.79c-1.04-2.15-1.86-4.2-2.58-6.02c-0.4-1.04-0.74-1.98-1.05-2.87
		c0.51-0.98,2.55-4.98,2.69-7.16c0.14-2.18-0.2-4.88-1.79-6.38c-1.42-1.44-3.69-1.42-5.07,0.06c-0.11,0.12-0.21,0.24-0.31,0.38
		c-1.79,2.59,0.04,8.03,1.66,10.29c0.14,0.21,2.69,3.05,2.69,2.99v-0.06c0.28,0.86,0.59,1.78,0.95,2.81c0.68,1.87,1.47,3.9,2.47,6.1
		c1.07,2.37,2.27,4.68,3.59,6.91c1.45,2.51,3.12,4.87,4.98,7.06l0.07,0.07c-0.77-0.48-2.98-1.74-3.16-1.82
		c-2.53-1.09-8.02-1.63-10,0.81c-1.25,1.6-1.03,3.96,0.5,5.27c0.12,0.11,0.26,0.2,0.39,0.29c1.79,1.27,4.43,0.94,6.36,0.3
		c2.19-0.77,5.84-4.32,6.13-4.6c1.96,2.19,4.05,4.24,6.27,6.13c1.27,1.11,2.59,2.19,3.94,3.26c-0.68-0.39-1.29-0.74-1.38-0.78
		c-2.54-1.09-8.07-1.63-10.01,0.81c-1.25,1.65-0.98,4.04,0.6,5.34c0.1,0.08,0.2,0.15,0.3,0.22c1.79,1.27,4.43,0.94,6.36,0.29
		c1.94-0.65,5.14-3.65,5.97-4.44l1.55,1.21c2.48,1.93,4.97,3.83,7.36,5.78c0.84,0.68,1.65,1.39,2.46,2.1
		c-0.6-0.35-1.11-0.63-1.19-0.66c-2.54-1.09-8.07-1.63-10,0.81c-1.25,1.6-1.03,3.96,0.5,5.27c0.12,0.11,0.26,0.2,0.39,0.29
		c1.79,1.27,4.43,0.94,6.36,0.29c1.94-0.65,4.83-3.37,5.82-4.3c0.81,0.75,1.62,1.5,2.37,2.26c0.5,0.53,1.02,1.01,1.5,1.58l1.43,1.63
		c0.9,1.07,1.79,2.17,2.6,3.24c0.57,0.74,1.11,1.45,1.66,2.17c-0.83-0.69-2.48-2.02-2.64-2.11c-2.34-1.47-7.7-2.87-10-0.77
		c-1.47,1.39-1.58,3.75-0.25,5.29c0.1,0.12,0.21,0.23,0.32,0.33c1.58,1.54,4.24,1.67,6.27,1.3c2.22-0.4,6.19-3.2,6.7-3.56
		c0.9,1.19,1.79,2.36,2.55,3.47c2.69,3.83,4.89,7.12,6.36,9.46l1.86-0.94l-0.11-0.16c-1.54-2.34-3.8-5.61-6.68-9.48
		c-0.9-1.21-1.89-2.49-2.92-3.79c1.02-1.21,1.97-2.48,2.85-3.81c2.16,0.84,6.64,0.8,7.22,0.8c0.12,1.51,0.22,2.98,0.29,4.37
		c0.27,4.76,0.32,8.75,0.31,11.56l2.03-1.08c-0.06-2.74-0.21-6.37-0.54-10.61c-0.11-1.53-0.26-3.17-0.43-4.85
		c0.56-0.16,5.21-1.49,6.94-2.99c1.58-1.36,3.23-3.55,3.13-5.8c0.02-2.07-1.58-3.76-3.56-3.77c-0.16,0-0.33,0.01-0.49,0.03
		c-3.03,0.46-5.49,5.61-5.95,8.42c0,0.17-0.13,2-0.17,3.16c-0.07-0.68-0.14-1.36-0.22-2.06c-0.15-1.39-0.35-2.81-0.56-4.28
		c-0.13-0.71-0.25-1.44-0.38-2.17c-0.13-0.73-0.31-1.49-0.47-2.24c-0.39-1.73-0.9-3.46-1.4-5.19c1.17-0.15,5.32-0.73,7.07-1.82
		c1.76-1.09,3.7-2.99,3.94-5.24c0.31-2.04-1.03-3.96-2.99-4.28c-0.16-0.03-0.32-0.04-0.47-0.04c-3.06,0-6.27,4.68-7.11,7.39
		c-0.05,0.17-0.46,2.19-0.66,3.3c-0.32-1.04-0.64-2.09-0.99-3.13c-1.03-3-2.17-6.02-3.29-9.02l-1.01-2.81
		c0.42,0,5.38-0.63,7.33-1.87c1.79-1.09,3.7-2.99,3.94-5.24c0.31-2.04-1.03-3.96-2.99-4.28c-0.16-0.03-0.32-0.04-0.47-0.04
		c-3.06,0-6.27,4.68-7.11,7.4c-0.06,0.2-0.65,3.11-0.76,3.85c-0.74-2.03-1.45-4.06-2.08-6.09c-0.87-2.74-1.56-5.53-2.08-8.37
		c0.2,0,5.38-0.6,7.38-1.87c1.79-1.09,3.7-2.99,3.94-5.23c0.31-2.04-1.03-3.96-2.99-4.28c-0.16-0.03-0.32-0.04-0.47-0.04
		c-3.06,0-6.27,4.68-7.11,7.39c-0.05,0.18-0.5,2.39-0.69,3.44h-0.17c-0.45-2.86-0.65-5.76-0.6-8.66c0-1.6,0.1-3.13,0.22-4.61
		c0.97,0,5.38-0.07,7.35-1c1.97-0.93,3.99-2.55,4.48-4.75c0.51-2-0.62-4.05-2.53-4.59c-0.15-0.04-0.29-0.07-0.44-0.09
		c-3.05-0.37-6.71,3.94-7.84,6.55c-0.06,0.14-0.55,1.65-0.9,2.75c0.06-0.67,0.13-1.37,0.2-2c0.27-2.4,0.66-4.58,1.02-6.55
		c0.22-1.09,0.43-2.08,0.64-2.99c0.96-0.52,4.76-2.69,6.05-4.41c1.29-1.71,2.42-4.19,1.86-6.37c-0.38-2.03-2.27-3.35-4.21-2.95
		C179.54,290.81,179.36,290.86,179.19,290.93z"/>
	<path class="st0" d="M305.33,298.26c1.94,1.99,7.68,4.15,7.68,4.15s0.21-4.38,0.19-4.68c-0.24-3.23-2.54-9.31-5.92-10.15
		c-2.22-0.48-4.39,1.01-4.85,3.33c-0.03,0.15-0.05,0.31-0.07,0.46C302.04,293.91,303.68,296.55,305.33,298.26z"/>
	<path class="st0" d="M362.41,322.66c0,0.05,2.49-3.54,2.62-3.74c1.51-2.81,2.81-9.23,0.43-11.87c-1.6-1.68-4.2-1.69-5.81-0.03
		c-0.11,0.11-0.21,0.22-0.3,0.34c-1.61,1.94-1.63,5.09-1.16,7.49C358.75,317.56,362.41,322.65,362.41,322.66z"/>
	<path class="st0" d="M387.32,307.95c-3.09-1.66-8.61,1.41-10.81,3.74c-0.19,0.2-2.81,3.64-2.75,3.67h0.06
		c-0.9,0.48-1.79,1-2.81,1.59c-1.86,1.11-3.94,2.39-6.13,3.93c-2.37,1.64-4.64,3.42-6.81,5.33c-2.44,2.13-4.7,4.49-6.74,7.04
		l-0.06,0.1c0.38-0.99,1.35-3.74,1.41-4c0.74-3.14,0.38-9.68-2.59-11.57c-1.96-1.18-4.48-0.48-5.61,1.58
		c-0.07,0.14-0.14,0.27-0.2,0.42c-1.07,2.3-0.29,5.35,0.77,7.49c1.19,2.42,5.64,6.09,6,6.38c-2.02,2.65-3.86,5.43-5.52,8.34
		c-0.98,1.68-1.91,3.42-2.82,5.17c0.3-0.86,0.56-1.64,0.59-1.75c0.74-3.14,0.38-9.68-2.58-11.57c-1.97-1.18-4.48-0.48-5.62,1.58
		c-0.07,0.13-0.14,0.27-0.2,0.41c-1.06,2.31-0.29,5.35,0.77,7.49s4.8,5.39,5.8,6.22c-0.34,0.68-0.69,1.35-1.03,2.02
		c-1.64,3.24-3.26,6.48-4.95,9.61c-0.59,1.1-1.22,2.17-1.84,3.24c0.27-0.77,0.49-1.42,0.51-1.52c0.74-3.15,0.38-9.68-2.58-11.58
		c-1.97-1.18-4.48-0.47-5.62,1.58c-0.07,0.13-0.14,0.27-0.2,0.41c-1.06,2.3-0.29,5.35,0.77,7.49s4.48,5.07,5.62,6.07
		c-0.66,1.07-1.33,2.14-2.02,3.15c-0.49,0.67-0.9,1.37-1.44,2.01s-1,1.31-1.51,1.95c-0.99,1.21-2.03,2.45-3.03,3.6
		c-0.69,0.8-1.37,1.55-2.04,2.31c0.6-1.09,1.74-3.25,1.79-3.44c0.94-2.67,1.22-5.55,0.79-8.37c0.12-0.3,0.21-0.62,0.28-0.94
		c0.54-2.3-0.81-4.63-3.02-5.19c-0.14-0.04-0.28-0.06-0.42-0.08c-3.46-0.39-7.56,4.56-8.82,7.49c-0.07,0.18-0.67,2.16-1.04,3.42
		c0.11-0.78,0.22-1.53,0.31-2.33c0.21-1.57,0.37-3.15,0.55-4.86c0.05-0.82,0.12-1.66,0.17-2.5c0.05-0.84,0.05-1.72,0.09-2.59
		c0-2.02,0-4.06-0.14-6.12c1.33,0.18,6.04,0.76,8.27,0.07s4.87-2.21,5.73-4.6c0.87-2.18-0.11-4.69-2.21-5.61
		c-0.14-0.06-0.28-0.11-0.43-0.16c-3.35-0.94-8.12,3.31-9.8,6.04c-0.11,0.17-1.09,2.26-1.62,3.43c-0.07-1.24-0.13-2.48-0.25-3.74
		c-0.32-3.61-0.76-7.25-1.18-10.88c-0.13-1.11-0.24-2.23-0.37-3.33c0.48,0.07,6.06,0.88,8.56,0.11c2.22-0.68,4.87-2.21,5.73-4.6
		c0.87-2.19-0.13-4.7-2.22-5.61c-0.13-0.06-0.27-0.11-0.41-0.15c-3.35-0.94-8.12,3.31-9.8,6.04c-0.13,0.21-1.55,3.23-1.87,4.01
		c-0.27-2.45-0.51-4.88-0.65-7.31c-0.2-3.26-0.2-6.53,0-9.8c0.22,0,6.04,0.94,8.61,0.12c2.22-0.68,4.87-2.21,5.73-4.6
		c0.87-2.19-0.13-4.7-2.22-5.61c-0.13-0.06-0.27-0.11-0.41-0.15c-3.35-0.94-8.12,3.31-9.8,6.04c-0.11,0.19-1.2,2.48-1.69,3.58
		l-0.2-0.05c0.28-3.28,0.84-6.53,1.68-9.7c0.44-1.75,0.96-3.41,1.49-5c1.07,0.28,5.97,1.51,8.35,1.06c2.38-0.45,5.07-1.63,6.19-3.91
		c1.1-2.08,0.38-4.69-1.61-5.84c-0.13-0.07-0.26-0.14-0.39-0.2c-3.24-1.3-8.44,2.36-10.38,4.88c-0.11,0.14-1.04,1.66-1.7,2.81
		c0.25-0.72,0.5-1.46,0.75-2.14c0.94-2.55,1.96-4.84,2.88-6.85c0.54-1.14,1.03-2.16,1.51-3.11c1.18-0.3,5.95-1.55,7.83-3.07
		c1.88-1.52,3.78-3.89,3.76-6.45c0.06-2.37-1.74-4.34-4.01-4.4c-0.16,0-0.32,0-0.48,0.02c-3.45,0.4-6.44,6.15-7.06,9.36
		c-0.05,0.28-0.42,4.68-0.36,4.68h0.07c-0.48,0.94-0.98,1.87-1.51,2.96c-0.96,1.99-2.03,4.26-3.04,6.8
		c-1.11,2.73-2.06,5.53-2.86,8.37c-0.91,3.18-1.55,6.45-1.9,9.75c0,0.04,0,0.08,0,0.12c-0.2-1.05-0.9-3.94-0.9-4.15
		c-1.06-3.04-4.8-8.28-8.27-8.16c-2.27,0.15-4,2.2-3.85,4.57c0.01,0.15,0.03,0.3,0.05,0.44c0.33,2.54,2.59,4.62,4.62,5.81
		c2.28,1.34,7.92,1.87,8.37,1.87c-0.29,3.37-0.35,6.76-0.2,10.13c0.07,1.97,0.22,3.95,0.37,5.93c-0.2-0.94-0.39-1.69-0.42-1.8
		c-1.06-3.05-4.8-8.29-8.27-8.16c-2.27,0.15-3.99,2.19-3.85,4.55c0.01,0.15,0.03,0.3,0.05,0.45c0.33,2.54,2.59,4.63,4.62,5.81
		s6.85,1.73,8.12,1.87c0.07,0.76,0.13,1.53,0.21,2.28c0.34,3.65,0.7,7.28,0.95,10.86c0.09,1.26,0.13,2.51,0.18,3.74
		c-0.18-0.8-0.34-1.46-0.38-1.56c-1.05-3.04-4.8-8.28-8.27-8.16c-2.27,0.15-3.99,2.2-3.84,4.56c0.01,0.15,0.03,0.3,0.05,0.44
		c0.33,2.54,2.59,4.63,4.61,5.82c2.02,1.19,6.38,1.67,7.9,1.82c0,1.28,0,2.55,0,3.8c-0.05,0.84-0.04,1.66-0.13,2.51
		c-0.09,0.85-0.15,1.67-0.22,2.49c-0.21,1.58-0.4,3.21-0.64,4.74c-0.15,1.08-0.31,2.09-0.48,3.12c-0.07-1.26-0.26-3.74-0.3-3.92
		c-0.59-3.17-3.54-8.95-6.99-9.36c-2.26-0.22-4.26,1.52-4.47,3.87c-0.01,0.16-0.02,0.32-0.02,0.48c-0.04,2.56,1.88,4.99,3.71,6.48
		c2.01,1.65,7.29,3,7.95,3.17c-0.28,1.68-0.56,3.33-0.85,4.88c-0.99,5.32-2.01,9.7-2.77,12.78l2.2,0.88c0-0.07,0-0.13,0.04-0.21
		c0.71-3.13,1.65-7.63,2.55-13.1c0.29-1.71,0.56-3.56,0.82-5.46c1.75-0.02,3.5-0.15,5.23-0.39c0.97,2.54,4.41,6.44,4.86,6.94
		c-1.12,1.25-2.23,2.46-3.29,3.58c-3.64,3.86-6.81,6.93-9.07,9.07l2.41,0.94c2.16-2.14,4.97-5.03,8.14-8.54
		c1.15-1.27,2.35-2.65,3.59-4.07c0.56,0.37,5.15,3.43,7.68,3.82c2.29,0.35,5.31,0.13,7.05-1.67c1.67-1.61,1.78-4.33,0.24-6.07
		c-0.1-0.11-0.21-0.22-0.32-0.32c-2.69-2.31-8.7-0.54-11.32,1.2c-0.15,0.1-1.71,1.41-2.69,2.26l1.5-1.76c1-1.2,1.97-2.42,3.01-3.74
		l1.47-1.98c0.5-0.65,0.96-1.4,1.44-2.11c1.09-1.66,2.12-3.41,3.12-5.18c1,0.94,4.63,4.12,6.86,4.83c2.22,0.71,5.23,0.94,7.17-0.53
		c1.88-1.33,2.38-3.99,1.11-5.96c-0.08-0.13-0.17-0.25-0.26-0.36c-2.31-2.71-8.52-1.92-11.37-0.62c-0.18,0.08-2.11,1.26-3.16,1.93
		c0.6-1.07,1.19-2.14,1.79-3.25c1.64-3.19,3.2-6.48,4.77-9.76c0.48-1,0.97-1.99,1.45-2.99c0.36,0.33,4.59,4.22,7.08,5.02
		c2.21,0.7,5.23,0.94,7.17-0.54c1.89-1.3,2.42-3.95,1.18-5.92c-0.09-0.14-0.18-0.27-0.28-0.39c-2.31-2.71-8.53-1.93-11.37-0.62
		c-0.22,0.1-2.99,1.8-3.68,2.26c1.08-2.19,2.16-4.37,3.32-6.47c1.55-2.84,3.28-5.58,5.16-8.19c0.17,0.16,4.56,4.24,7.12,5.06
		c2.21,0.7,5.23,0.94,7.17-0.54c1.88-1.31,2.39-3.97,1.13-5.93c-0.09-0.13-0.18-0.26-0.28-0.38c-2.31-2.71-8.53-1.93-11.37-0.62
		c-0.19,0.08-2.3,1.38-3.3,2.02l-0.13-0.16c1.97-2.57,4.15-4.95,6.53-7.12c1.29-1.21,2.59-2.29,3.88-3.31
		c0.74,0.85,4.19,4.68,6.4,5.69c2.21,1.01,5.09,1.55,7.22,0.29c2.01-1.1,2.79-3.7,1.73-5.8c-0.07-0.13-0.14-0.26-0.22-0.39
		c-2.02-2.96-8.28-2.88-11.24-1.87c-0.16,0.05-1.74,0.78-2.88,1.33c0.59-0.46,1.18-0.94,1.79-1.36c2.14-1.58,4.2-2.9,6.02-4.05
		c1.05-0.65,2.01-1.21,2.9-1.72c1.15,0.43,5.79,2.13,8.16,1.96s5.21-1.07,6.54-3.22c1.3-1.94,0.84-4.61-1.02-5.97
		C387.59,308.11,387.46,308.03,387.32,307.95z"/>
</g>
<g id="freepik--Clouds--inject-2">
	<path class="st1" d="M168.24,55.89c-0.28-0.93-0.56-1.75-0.9-2.63c-11.25-32.39-63.72-34.61-63.72,5.19c0,7.66-17.82,0-24.51,9.97
		c-6.69,9.97,0.74,16.1-8.17,19.16s-9.65-4.63-20.79-3.83s-9.65,11.5-13.38,14.56c-3.73,3.06-3.71,1.54-11.88,2.3
		s-9.64,6.9-9.64,6.9h195.27c0,0,7.42-23-5.94-31.47c-13.37-8.47-13.36,3.06-23.75-1.54C172.24,70.75,170.64,63.53,168.24,55.89z"/>
	<path class="st1" d="M174.99,99.13c0,0,4.04-12.96-5.88-22.41s-20.23-4.17-23.17,0s-2.94,12.15-7.72,12.96s-3.68-8.33-13.97-6.07
		s-6.27,12.91-11.03,15.19c-4.76,2.28-4.78-6.08-11.4-3.42s-6.27,7.59-6.27,7.59"/>
	<path class="st1" d="M122.17,73.33c-5.51-4.05-12.72-4.7-18.82-1.69C92.7,76.71,97.61,87.28,92.7,89.82s-7.37-0.43-13.51,2.54
		c-6.14,2.96-5.73,7.19-5.73,7.19"/>
	<path class="st1" d="M323.86,16.34c-0.14-0.46-0.3-0.93-0.46-1.39c-5.97-17.13-33.72-18.32-33.72,2.78c0,4.05-9.43,0-12.96,5.28
		c-3.53,5.28,0.39,8.52-4.32,10.18s-5.11-2.43-11-2.03s-5.1,6.08-7.06,7.7c-1.96,1.62-1.96,0.81-6.27,1.22
		c-4.31,0.41-5.12,3.56-5.12,3.56h103.29c0,0,3.93-12.16-3.15-16.66s-7.06,1.62-12.55-0.81C325.98,24.21,325.13,20.39,323.86,16.34z
		"/>
	<path class="st1" d="M327.43,39.21c0,0,2.13-6.83-3.12-11.86s-10.69-2.2-12.25,0c-1.56,2.2-1.55,6.43-4.08,6.83
		c-2.53,0.4-1.95-4.42-7.4-3.21c-5.45,1.2-3.31,6.83-5.84,8.03c-2.53,1.2-2.51-3.21-6.03-1.84c-3.52,1.37-3.31,4.02-3.31,4.02"/>
	<path class="st1" d="M299.49,25.56c-2.91-2.16-6.73-2.51-9.97-0.93c-5.63,2.68-3.03,8.28-5.63,9.62c-2.6,1.34-3.9-0.22-7.17,1.34
		s-3.03,3.8-3.03,3.8"/>
	<path class="st1" d="M376.5,158.89c-0.14-0.46-0.3-0.93-0.46-1.39c-5.96-17.13-33.72-18.32-33.72,2.78c0,4.05-9.43,0-12.96,5.28
		c-3.53,5.28,0.39,8.52-4.32,10.18c-4.72,1.67-5.1-2.43-11-2.03s-5.1,6.08-7.06,7.7c-1.96,1.62-1.96,0.81-6.27,1.22
		s-5.11,3.65-5.11,3.65h103.32c0,0,3.93-12.16-3.15-16.66s-7.06,1.62-12.55-0.81C378.66,166.75,377.81,162.93,376.5,158.89z"/>
	<path class="st1" d="M380.09,181.76c0,0,2.13-6.83-3.12-11.86s-10.69-2.2-12.25,0c-1.56,2.2-1.55,6.43-4.08,6.83
		s-1.95-4.42-7.4-3.21c-5.45,1.2-3.31,6.83-5.84,8.03s-2.53-3.21-6.03-1.85c-3.5,1.36-3.31,4.02-3.31,4.02"/>
	<path class="st1" d="M352.18,168.11c-2.91-2.15-6.72-2.51-9.96-0.93c-5.64,2.68-3.04,8.28-5.64,9.62c-2.6,1.34-3.89-0.22-7.17,1.34
		s-3.03,3.8-3.03,3.8"/>
</g>
<g id="freepik--Character--inject-2">
	<path class="st2" d="M92.47,327.37c0,0,5.74-3.73,22.07,0c16.33,3.73,21.18,11.67,22.51,16.79c1.33,5.13-5.3,9.34-15.89,11.67
		s-25.59-13.07-26.89-17.27S92.47,327.37,92.47,327.37z"/>
	<path class="st3" d="M82.88,238.6c0.37,3.15,1.47,6.16,3.2,8.76c2.94,4.52,8.07,11.31,8.07,11.31s-18.17,18.08-18.44,23.16
		s1.07,12.43,5.07,15.83c4.01,3.39,15.77,18.36,19.25,20.34l0.26,24.02c0,0,0.54,7.06,15.77,9.04c15.23,1.98,14.97-2.84,14.97-2.84
		s-2.14-24.59-1.6-31.65c0.54-7.06,2.37-14.39,2.37-25.13s-4.54-24.02-7.22-27.69s-9.63-15.82-10.71-18.64s-4.54-4.81-6.69-9.89
		c-2.14-5.09-5.07-11.58-7.74-8.47c-2.67,3.11-2.69,9.89-0.8,14.13l1.86,4.24c0,0-5.07-9.04-9.62-9.61
		C86.33,234.93,85.82,234.65,82.88,238.6z"/>
	<path class="st1" d="M104.52,283.53c0,0-1.07,11.3,5.38,18.65"/>
	<path class="st1" d="M110.13,299.35c0,0,2.69,5.69,5.08,8.48"/>
	<path class="st1" d="M102.12,318c0,0,2.69,1.7,7.75,0"/>
	<line class="st4" x1="99.18" y1="242.84" x2="90.63" y2="206.4"/>
	<ellipse class="st0" cx="90.36" cy="205.27" rx="2.67" ry="2.82"/>
	<polyline class="st5" points="83.03,206.49 85.58,203.69 83.02,203.87 	"/>
	<polyline class="st5" points="83.44,201.48 85.58,203.69 85.8,200.18 	"/>
	<polyline class="st5" points="84.53,206.93 85.58,203.69 87.08,200.69 	"/>
	<line class="st5" x1="85.58" y1="203.69" x2="89.77" y2="205.61"/>
	<polyline class="st5" points="85.03,210.82 85.53,206.97 83.55,208.71 	"/>
	<polyline class="st5" points="82.58,206.52 85.53,206.97 83.77,204 	"/>
	<polyline class="st5" points="86.49,210.25 85.53,206.97 85.08,203.62 	"/>
	<line class="st5" x1="85.53" y1="206.97" x2="89.99" y2="205.93"/>
	<polyline class="st5" points="89.07,213.09 87.33,209.66 86.69,212.29 	"/>
	<polyline class="st5" points="84.68,211.13 87.33,209.66 84.24,208.35 	"/>
	<polyline class="st5" points="89.92,211.71 87.33,209.66 85.1,207.23 	"/>
	<line class="st5" x1="87.33" y1="209.66" x2="90.36" y2="206.05"/>
	<polyline class="st5" points="93.58,212.41 90.27,210.72 91.23,213.24 	"/>
	<polyline class="st5" points="88.95,213.55 90.27,210.72 87.05,211.57 	"/>
	<polyline class="st5" points="93.51,210.77 90.27,210.72 87.11,210.14 	"/>
	<line class="st5" x1="90.27" y1="210.72" x2="90.72" y2="205.91"/>
	<polyline class="st5" points="96.86,209.06 93.23,209.74 95.41,211.2 	"/>
	<polyline class="st5" points="93.75,212.86 93.23,209.74 91.11,212.44 	"/>
	<polyline class="st5" points="95.89,207.77 93.23,209.74 90.37,211.24 	"/>
	<line class="st5" x1="93.23" y1="209.74" x2="90.93" y2="205.58"/>
	<polyline class="st5" points="97.64,204.3 95.1,207.12 97.67,206.94 	"/>
	<polyline class="st5" points="97.24,209.32 95.1,207.12 94.87,210.62 	"/>
	<polyline class="st5" points="96.15,203.87 95.1,207.12 93.6,210.11 	"/>
	<line class="st5" x1="95.1" y1="207.12" x2="90.91" y2="205.18"/>
	<polyline class="st5" points="87.09,198.39 90.41,200.09 89.46,197.56 	"/>
	<polyline class="st5" points="91.73,197.25 90.41,200.09 93.64,199.22 	"/>
	<polyline class="st5" points="87.17,200.03 90.41,200.09 93.57,200.66 	"/>
	<line class="st5" x1="90.41" y1="200.09" x2="89.97" y2="204.88"/>
	<polyline class="st5" points="83.82,201.74 87.44,201.05 85.27,199.6 	"/>
	<polyline class="st5" points="86.93,197.94 87.44,201.05 89.57,198.36 	"/>
	<polyline class="st5" points="84.79,203.02 87.44,201.05 90.32,199.55 	"/>
	<line class="st5" x1="87.44" y1="201.05" x2="89.76" y2="205.21"/>
	<polyline class="st5" points="84.9,206.22 86.79,204.12 84.88,204.26 	"/>
	<polyline class="st5" points="85.19,202.48 86.79,204.12 86.96,201.51 	"/>
	<polyline class="st5" points="86.01,206.54 86.79,204.12 87.91,201.89 	"/>
	<line class="st5" x1="86.79" y1="204.12" x2="89.91" y2="205.56"/>
	<polyline class="st5" points="86.39,209.45 86.76,206.57 85.28,207.87 	"/>
	<polyline class="st5" points="84.56,206.24 86.76,206.57 85.44,204.35 	"/>
	<polyline class="st5" points="87.47,209.01 86.76,206.57 86.42,204.08 	"/>
	<line class="st5" x1="86.76" y1="206.57" x2="90.08" y2="205.8"/>
	<polyline class="st5" points="89.39,211.13 88.09,208.57 87.62,210.54 	"/>
	<polyline class="st5" points="86.13,209.67 88.09,208.57 85.79,207.6 	"/>
	<polyline class="st5" points="90.03,210.1 88.09,208.57 86.43,206.76 	"/>
	<line class="st5" x1="88.09" y1="208.57" x2="90.35" y2="205.89"/>
	<polyline class="st5" points="92.76,210.63 90.29,209.36 90.99,211.25 	"/>
	<polyline class="st5" points="89.3,211.48 90.29,209.36 87.88,210 	"/>
	<polyline class="st5" points="92.71,209.4 90.29,209.36 87.94,208.93 	"/>
	<line class="st5" x1="90.29" y1="209.36" x2="90.62" y2="205.78"/>
	<polyline class="st5" points="95.2,208.12 92.5,208.64 94.12,209.72 	"/>
	<polyline class="st5" points="92.88,210.96 92.5,208.64 90.91,210.64 	"/>
	<polyline class="st5" points="94.47,207.17 92.5,208.64 90.36,209.75 	"/>
	<line class="st5" x1="92.5" y1="208.64" x2="90.78" y2="205.54"/>
	<polyline class="st5" points="95.79,204.59 93.89,206.68 95.8,206.55 	"/>
	<polyline class="st5" points="95.48,208.32 93.89,206.68 93.72,209.29 	"/>
	<polyline class="st5" points="94.67,204.27 93.89,206.68 92.77,208.91 	"/>
	<line class="st5" x1="93.89" y1="206.68" x2="90.77" y2="205.24"/>
	<polyline class="st5" points="87.92,200.18 90.39,201.44 89.68,199.55 	"/>
	<polyline class="st5" points="91.38,199.33 90.39,201.44 92.8,200.8 	"/>
	<polyline class="st5" points="87.98,201.4 90.39,201.44 92.74,201.87 	"/>
	<line class="st5" x1="90.39" y1="201.44" x2="90.06" y2="205.01"/>
	<polyline class="st5" points="85.48,202.67 88.18,202.16 86.56,201.08 	"/>
	<polyline class="st5" points="87.8,199.84 88.18,202.16 89.77,200.15 	"/>
	<polyline class="st5" points="86.21,203.63 88.18,202.16 90.32,201.04 	"/>
	<line class="st5" x1="88.18" y1="202.16" x2="89.9" y2="205.26"/>
	<polyline class="st5" points="85.53,206.11 87.18,204.29 85.52,204.41 	"/>
	<polyline class="st5" points="85.79,202.86 87.18,204.29 87.33,202.02 	"/>
	<polyline class="st5" points="86.5,206.39 87.18,204.29 88.15,202.35 	"/>
	<line class="st5" x1="87.18" y1="204.28" x2="89.89" y2="205.54"/>
	<polyline class="st5" points="86.83,208.92 87.15,206.42 85.88,207.54 	"/>
	<polyline class="st5" points="85.24,206.12 87.15,206.42 86.01,204.49 	"/>
	<polyline class="st5" points="87.78,208.54 87.15,206.42 86.86,204.25 	"/>
	<line class="st5" x1="87.15" y1="206.42" x2="90.03" y2="205.74"/>
	<polyline class="st5" points="89.44,210.38 88.31,208.16 87.9,209.87 	"/>
	<polyline class="st5" points="86.6,209.11 88.31,208.16 86.31,207.31 	"/>
	<polyline class="st5" points="89.99,209.49 88.31,208.16 86.86,206.59 	"/>
	<line class="st5" x1="88.31" y1="208.16" x2="90.28" y2="205.82"/>
	<polyline class="st5" points="92.37,209.94 90.21,208.84 90.83,210.48 	"/>
	<polyline class="st5" points="89.36,210.68 90.21,208.84 88.13,209.4 	"/>
	<polyline class="st5" points="92.32,208.88 90.21,208.84 88.17,208.47 	"/>
	<line class="st5" x1="90.21" y1="208.84" x2="90.5" y2="205.73"/>
	<polyline class="st5" points="94.49,207.76 92.14,208.22 93.55,209.16 	"/>
	<polyline class="st5" points="92.46,210.23 92.14,208.22 90.76,209.96 	"/>
	<polyline class="st5" points="93.85,206.94 92.14,208.22 90.28,209.18 	"/>
	<line class="st5" x1="92.14" y1="208.22" x2="90.64" y2="205.52"/>
	<polyline class="st5" points="94.99,204.69 93.34,206.51 95.01,206.4 	"/>
	<polyline class="st5" points="94.73,207.94 93.34,206.51 93.2,208.78 	"/>
	<polyline class="st5" points="94.02,204.41 93.34,206.51 92.37,208.45 	"/>
	<line class="st5" x1="93.34" y1="206.51" x2="90.64" y2="205.26"/>
	<polyline class="st5" points="88.16,200.86 90.31,201.96 89.69,200.32 	"/>
	<polyline class="st5" points="91.16,200.12 90.31,201.96 92.39,201.4 	"/>
	<polyline class="st5" points="88.21,201.92 90.31,201.96 92.36,202.33 	"/>
	<line class="st5" x1="90.31" y1="201.95" x2="90.03" y2="205.07"/>
	<polyline class="st5" points="86.05,203.03 88.39,202.59 86.98,201.65 	"/>
	<polyline class="st5" points="88.06,200.57 88.39,202.59 89.77,200.84 	"/>
	<polyline class="st5" points="86.67,203.87 88.39,202.59 90.25,201.62 	"/>
	<line class="st5" x1="88.39" y1="202.59" x2="89.88" y2="205.28"/>
	<polyline class="st5" points="86.74,205.93 87.96,204.57 86.73,204.65 	"/>
	<polyline class="st5" points="86.93,203.51 87.96,204.57 88.07,202.88 	"/>
	<polyline class="st5" points="87.46,206.14 87.96,204.57 88.69,203.13 	"/>
	<line class="st5" x1="87.96" y1="204.57" x2="89.98" y2="205.51"/>
	<polyline class="st5" points="87.7,208.02 87.95,206.16 87,206.99 	"/>
	<polyline class="st5" points="86.52,205.94 87.95,206.16 87.09,204.72 	"/>
	<polyline class="st5" points="88.4,207.73 87.95,206.16 87.72,204.54 	"/>
	<line class="st5" x1="87.95" y1="206.16" x2="90.1" y2="205.66"/>
	<polyline class="st5" points="89.65,209.11 88.81,207.45 88.5,208.73 	"/>
	<polyline class="st5" points="87.53,208.16 88.81,207.45 87.32,206.82 	"/>
	<polyline class="st5" points="90.06,208.45 88.81,207.45 87.73,206.28 	"/>
	<line class="st5" x1="88.81" y1="207.45" x2="90.27" y2="205.72"/>
	<polyline class="st5" points="91.83,208.79 90.23,207.96 90.69,209.18 	"/>
	<polyline class="st5" points="89.6,209.34 90.23,207.96 88.67,208.38 	"/>
	<polyline class="st5" points="91.79,207.99 90.23,207.96 88.71,207.69 	"/>
	<line class="st5" x1="90.23" y1="207.96" x2="90.45" y2="205.65"/>
	<polyline class="st5" points="93.41,207.17 91.67,207.5 92.71,208.2 	"/>
	<polyline class="st5" points="91.91,209 91.67,207.5 90.64,208.8 	"/>
	<polyline class="st5" points="92.94,206.55 91.67,207.5 90.28,208.22 	"/>
	<line class="st5" x1="91.66" y1="207.5" x2="90.55" y2="205.49"/>
	<polyline class="st5" points="93.79,204.87 92.56,206.23 93.8,206.14 	"/>
	<polyline class="st5" points="93.59,207.29 92.56,206.23 92.45,207.91 	"/>
	<polyline class="st5" points="93.06,204.66 92.56,206.23 91.84,207.68 	"/>
	<line class="st5" x1="92.56" y1="206.23" x2="90.55" y2="205.3"/>
	<polyline class="st5" points="88.7,202.02 90.3,202.83 89.84,201.61 	"/>
	<polyline class="st5" points="90.94,201.47 90.3,202.83 91.85,202.42 	"/>
	<polyline class="st5" points="88.73,202.81 90.3,202.83 91.82,203.12 	"/>
	<line class="st5" x1="90.29" y1="202.83" x2="90.09" y2="205.16"/>
	<polyline class="st5" points="87.12,203.64 88.87,203.3 87.81,202.61 	"/>
	<polyline class="st5" points="88.62,201.8 88.87,203.3 89.89,202 	"/>
	<polyline class="st5" points="87.59,204.26 88.87,203.3 90.25,202.58 	"/>
	<line class="st5" x1="88.87" y1="203.3" x2="89.98" y2="205.31"/>
	<path class="st3" d="M87.16,241.43c0.92,0.96,2.01,1.73,3.2,2.27c1.4,0.41,2.83,0.69,4.28,0.84c0,0,3.21,4.24,7.48,4.24
		c4.28,0,5.61-1.13,4.54-4.52s-5.08-6.49-6.42-8.19c-1.34-1.7-6.41-3.39-8.81-3.95c-2.4-0.56-7.75,2.54-8.55,5.08
		c-0.5,1.42-0.3,3,0.53,4.24"/>
	<line class="st1" x1="102.12" y1="248.77" x2="105.06" y2="255.84"/>
	<path class="st3" d="M77.54,289.75c0,0-2.41-6.79-2.14-10.17c0.27-3.38,5.07-9.61,5.07-9.61l8.55-10.74l6.69-9.04
		c1.21-0.86,2.8-0.86,4.01,0c2.4,1.41,11.49,15.26,12.02,19.5c0.53,4.24-4.28,8.2-5.88,9.33c-0.7,0.49-2.69-0.84-2.69-0.84
		s2.94,4.52-0.53,7.35s-5.38,3.38-5.38,3.38s-1.34,3.39-4.27,4.25c-2.37,0.7-4.9,0.28-6.96-1.14c-1.12-0.67-2.05-1.66-2.69-2.84
		c0,0-0.53,1.41-4.01-1.13"/>
	<path class="st1" d="M80.47,269.97c0,0,1.34-1.13,4.02,1.13c2.68,2.26,11.45,16.39,11.45,16.39"/>
	<path class="st1" d="M89.02,259.23c0,0,2.94-0.84,5.61,2.27s8.55,16.67,8.55,16.67"/>
	<path class="st6" d="M149.9,401.24c-7.05-10.73-12.85-57.08-12.85-57.08s-6.07,4.07-22.95-0.46s-21.63-16.33-21.63-16.33
		s-4.01,33.28,2.62,73.87"/>
	<path class="st6" d="M91.72,369.68c11.86,2.67,32.9,2.84,49.16-0.73c-2.36-13.03-3.83-24.78-3.83-24.78s-6.07,4.07-22.95-0.46
		s-21.63-16.33-21.63-16.33S90.38,344.75,91.72,369.68z"/>
	<polyline class="st5" points="26.95,191.18 23.63,189.49 24.59,192.01 	"/>
	<polyline class="st5" points="22.31,192.32 23.63,189.49 20.41,190.34 	"/>
	<polyline class="st5" points="26.87,189.54 23.63,189.49 20.47,188.91 	"/>
	<line class="st5" x1="23.63" y1="189.49" x2="24.08" y2="184.68"/>
	<polyline class="st5" points="43.85,186.72 47.17,188.42 46.21,185.89 	"/>
	<polyline class="st5" points="48.49,185.58 47.17,188.42 50.39,187.56 	"/>
	<polyline class="st5" points="43.92,188.36 47.17,188.42 50.32,189 	"/>
	<line class="st5" x1="47.17" y1="188.42" x2="46.72" y2="193.22"/>
	<polyline class="st5" points="5.24,187.01 2.77,185.75 3.49,187.63 	"/>
	<polyline class="st5" points="1.78,187.86 2.77,185.75 0.37,186.38 	"/>
	<polyline class="st5" points="5.19,185.78 2.77,185.75 0.42,185.32 	"/>
	<line class="st5" x1="2.77" y1="185.75" x2="3.1" y2="182.16"/>
	<polyline class="st5" points="58.19,184.54 60.67,185.8 59.95,183.92 	"/>
	<polyline class="st5" points="61.65,183.69 60.67,185.8 63.06,185.16 	"/>
	<polyline class="st5" points="58.25,185.76 60.67,185.8 63.02,186.23 	"/>
	<line class="st5" x1="60.66" y1="185.8" x2="60.34" y2="189.38"/>
	<polyline class="st5" points="72.47,175.88 74.94,177.14 74.23,175.25 	"/>
	<polyline class="st5" points="75.93,175.03 74.94,177.14 77.34,176.5 	"/>
	<polyline class="st5" points="72.53,177.1 74.94,177.14 77.3,177.57 	"/>
	<line class="st5" x1="74.94" y1="177.14" x2="74.62" y2="180.71"/>
	<polyline class="st5" points="59.61,202.74 62.31,202.23 60.69,201.15 	"/>
	<polyline class="st5" points="61.93,199.91 62.31,202.23 63.9,200.22 	"/>
	<polyline class="st5" points="60.34,203.7 62.31,202.23 64.45,201.12 	"/>
	<line class="st5" x1="62.31" y1="202.23" x2="64.03" y2="205.33"/>
	<polyline class="st5" points="73.67,194.44 76.36,193.93 74.74,192.84 	"/>
	<polyline class="st5" points="75.99,191.6 76.36,193.93 77.95,191.92 	"/>
	<polyline class="st5" points="74.39,195.39 76.36,193.93 78.51,192.81 	"/>
	<line class="st5" x1="76.36" y1="193.93" x2="78.09" y2="197.02"/>
	<polyline class="st5" points="32.36,199.72 35.07,199.19 33.45,198.11 	"/>
	<polyline class="st5" points="34.68,196.88 35.07,199.19 36.65,197.19 	"/>
	<polyline class="st5" points="33.09,200.67 35.07,199.19 37.21,198.09 	"/>
	<line class="st5" x1="35.07" y1="199.19" x2="36.79" y2="202.3"/>
	<path class="st0" d="M151,402.79c0,0,17.99-67.74,20.68-83.38c1.56-9.24,6.57-17.44,13.89-22.75c3.5-1.51,7.1-2.77,10.76-3.79
		c5.38-1.42,17.48-4.27,27.34-10.43c9.86-6.16,34.21-47.21,55.22-29.49c12.49,10.57,21.94,24.05,31.8,42.53
		C320.55,313.97,349,401.78,349,401.78L151,402.79z"/>
	<path class="st3" d="M170.94,140.18c0,0-5.31,9.81-5.75,15.88c-0.44,6.07,0,10.74-3.53,18.68c-3.53,7.94-15.45,13.07-15.45,16.34
		s5.3,9.76,5.3,9.76s-0.9,5.6-3.53,6.54c-2.64,0.94,0.9,7,0.9,7s-2.21,2.33,0,5.6c2.21,3.27,2.69,0.95,2.69,6.07
		s-3.53,11.21-1.33,15.41c2.21,4.2,5.75,5.14,11.48,4.67s14.14-2.84,17.22-0.95s16.49,17.68,16.49,17.68l56.37-30.97
		c0,0-12.8-12.32-18.99-41.29c-6.19-28.97-18.11-65.4-34.01-68.64S171.38,128.49,170.94,140.18z"/>
	<path class="st1" d="M148.82,214.41c1.85,0.24,3.72,0.23,5.57-0.05"/>
	<path class="st1" d="M154.2,198.94c0,0,4.48,4.74,8.07,2.37c3.59-2.37,1.79-5.69,1.79-5.69"/>
	<path class="st1" d="M176.37,168.99c0,0-1.39,5.46-2.18,7.77"/>
	<path class="st2" d="M172.4,176.34c0,0,5.96,2.3,10.52,1.9l2.38-0.42c-1.51,0.97-3.21,1.54-4.97,1.68c-3.37,0.42-5.95,0-5.38-0.21
		l0.6-1.05c0,0-0.8,0.42-3.18,0.21C170,178.24,169.63,176.55,172.4,176.34z"/>
	<path class="st0" d="M173.02,161.86c0,0,0.99-5.89,7.74-4.83c6.75,1.05,7.55,4.83,7.55,4.83s-4.77-2.94-7.55-2.52
		C177.98,159.76,173.99,164.82,173.02,161.86z"/>
	<path class="st1" d="M202.45,228.78c-1.24,0.48-2.54,0.95-3.88,1.44"/>
	<path class="st1" d="M223.22,217.89c0,0-5.7,4.45-16.61,9.17"/>
	<path class="st7" d="M171.68,399.03c0,0,16.58-79.14,20.62-97.15c4.03-18.01,15.69-12.8,17.93-12.32
		c2.24,0.47-7.72,107.81-7.72,109.71"/>
	<path class="st7" d="M187.5,402.28c0,0,3-46.86,7.04-69.13c4.03-22.27,6.27-36.96,6.27-36.96l38.1-27.49
		c0,0-9.41,95.73-4.93,133.16"/>
	<path class="st2" d="M195.35,306.26l1.39,0.82l1.88,1.11c0,0,24.31-16.88,33.02-22.25c8.71-5.37,25.4-24.18,25.4-24.18
		L195.35,306.26z"/>
	<path class="st6" d="M190.5,365.5c-0.47,4.83-0.9,9.62-1.26,14.11l43.77-20.96c0.14-5.15,0.33-10.43,0.57-15.65L190.5,365.5z"/>
	<path class="st6" d="M232.81,368.35l-44.24,19.53c-0.18,2.32-0.34,4.48-0.48,6.43l44.69-16.11
		C232.76,375.03,232.77,371.73,232.81,368.35z"/>
	<path class="st7" d="M246.62,234.01c0,0-73.27,30.33-76.3,37.45c-3.03,7.12,6.07,11.15,6.07,11.15s-3.47,8.03,0.43,12.48
		c3.9,4.45,12.15,14.26,19.51,11.15c7.37-3.12,50.29-36.56,64.6-46.81c14.32-10.25,18.64-14.71,16.04-19.61
		C274.37,234.91,260.49,224.6,246.62,234.01z"/>
	<path class="st6" d="M254.19,230.64c-2.69,0.61-5.26,1.74-7.57,3.32l-1.6,0.67l-22.8,53.64c4.48-3.31,9.12-6.8,13.64-10.21
		L254.19,230.64z"/>
	<path class="st6" d="M221.36,244.77l-28.61,61.99c1.22,0.1,2.45-0.1,3.59-0.58c2.51-1.28,4.92-2.76,7.22-4.43l29.7-62.14
		C229.69,241.13,225.65,242.89,221.36,244.77z"/>
	<path class="st6" d="M264.03,230.89l-13.92,36.45c4.33-3.25,8.07-6.03,10.76-7.97c14.34-10.2,18.7-14.71,16.14-19.61
		C275.52,237.02,270.55,232.62,264.03,230.89z"/>
	<path class="st1" d="M221.68,260.78c-8.83,5.69-16.77,11.59-20.62,16.43"/>
	<path class="st1" d="M259.63,239.31c0,0-17.56,8.78-33.83,18.86"/>
	<path class="st1" d="M196.14,277.94c-1.06,1.3-2.01,2.7-2.85,4.17"/>
	<path class="st1" d="M208.47,265.62c-3.4,2.87-6.63,5.95-9.67,9.23"/>
	<line class="st1" x1="193.73" y1="276.32" x2="188.09" y2="284.33"/>
	<path class="st6" d="M256.85,402.54c-2.01-12.22-6.73-43.47-6.73-68.23c0-31.48,0-48.65,14.34-62.49
		c14.34-13.83,21.51-11.93,31.82-1.43s19.72,34.82,31.82,74.89s17.47,57.51,17.47,57.51"/>
	<path class="st6" d="M256.5,401.28c0,0,0.89,3.64,0.35,0.34"/>
	<path class="st2" d="M339.8,185.28c-0.48-8.73-6.27-7.7-0.48-13.86s6.79-16.94,4.85-22.59c-1.95-5.65-3.88-8.73-3.88-15.4
		c0-6.67-2.91-14.88-7.77-16.94s-8.25-6.63-8.25-14.37s-2.91-6.63-7.77-9.24c-4.86-2.61-5.33-7.7-10.19-13.86s-10.68-4.62-14.56-4.1
		c-3.88,0.51-1.46-5.69-9.22-6.63c-7.76-0.95-8.74,2.57-10.68,2.57s-8.25-8.22-13.11-8.22s-5.33,3.6-7.72,3.6
		c-2.38,0-6.27-10.26-15.53-8.72s-7.28,5.69-10.68,6.16c-3.41,0.47-7.28-5.14-13.11-3.08c-5.83,2.06-5.33,10.78-9.71,10.26
		l-4.37-0.51c0,0-11.17-6.63-15.53,1.54c-4.37,8.17,4.37,14.37-0.97,16.43s-16.5-6.16-17.93,3.08s5.83,8.72,4.37,13.34
		c-1.46,4.63-6.79,4.1-7.76,10.78c-0.97,6.67,5.38,5.69,6.79,7.18c1.42,1.5-6.27,6.63-3.4,11.81c1.66,3.03,4.51,5.11,7.77,5.69
		c4.77-8.06,12.51-13.64,21.35-15.39c0,0-3.88,8.21-0.48,14.37c3.4,6.16,13.59,4.1,11.65,10.26c-1.94,6.16-10.73,14.79-4.94,22.01
		c5.79,7.21,14.08,0,14.08,8.72s-5.38,10.79-2.43,15.4c2.95,4.62,6.79-0.51,7.76,4.62c0.97,5.13-5.33,18.48-0.48,23.61
		c2.75,2.91,6.12,1.9,8.79,1.72c1.45,0.85,2.81,1.98,2.81,3.23c0,2.71-6.82,6.31-1.42,11.42s11.92-0.32,14.06,4.64
		c2.13,4.97,0.72,8.87,12.65,10.38c11.93,1.51,18.47-7.52,23.01-5.69c4.54,1.83,10.51,6.63,16.2,2.41c1.07-0.79,2.09-1.66,3.04-2.61
		c1.51-0.3,2.88-1.14,3.87-2.38c0.59-0.82,1.09-1.72,1.49-2.66c0.67-0.32,1.39-0.47,2.12-0.46c3.97,0,11.08,2.7,11.08-3.3
		c0-0.74,0.04-1.48,0.13-2.21c2.73-1.14,4.6-3.61,4.6-5.69c0-0.18-0.02-0.36-0.06-0.53c0.97-0.39,1.98-0.68,3-0.84
		c3.97-0.7,6.56-2.84,6.99-8.74c3.19-1.49,5.59-3.43,6.1-6.31c0.97-5.69-1.95-10.26-0.98-13.34S340.28,194,339.8,185.28z"/>
</g>
</svg>
